<svg width="20" height="20" viewBox="0 0 20 20" fill="none" xmlns="http://www.w3.org/2000/svg">
<path fill-rule="evenodd" clip-rule="evenodd" d="M2.003 5.884L10 9.882L17.997 5.884C17.9674 5.37444 17.7441 4.89549 17.3743 4.54441C17.0045 4.19334 16.5163 3.99788 16.008 4H3.992C3.48368 3.99788 2.99549 4.19334 2.62569 4.54441C2.25588 4.89549 2.0326 5.37444 2.003 5.884Z" fill="#64748B"></path>
<path d="M18 8.118L10 12.118L2 8.118V14C2 14.5304 2.21071 15.0391 2.58579 15.4142C2.96086 15.7893 3.46957 16 4 16H16C16.5304 16 17.0391 15.7893 17.4142 15.4142C17.7893 15.0391 18 14.5304 18 14V8.118Z" fill="#64748B"></path>
</svg>
