<svg width="24" height="24" viewBox="0 0 24 24" fill="none" xmlns="http://www.w3.org/2000/svg">
<mask id="path-1-inside-1_2_2106" fill="white">
<path d="M20 7.00024C20 5.34339 18.6569 4.00024 17 4.00024H3C2.44772 4.00024 2 4.44796 2 5.00024V19.0002C2 19.5525 2.44772 20.0002 3 20.0002H17C18.6569 20.0002 20 18.6571 20 17.0002V7.00024Z"></path>
</mask>
<path d="M20 7.00024C20 5.34339 18.6569 4.00024 17 4.00024H3C2.44772 4.00024 2 4.44796 2 5.00024V19.0002C2 19.5525 2.44772 20.0002 3 20.0002H17C18.6569 20.0002 20 18.6571 20 17.0002V7.00024Z" stroke="#64748B" stroke-width="4" mask="url(#path-1-inside-1_2_2106)"></path>
<rect x="12" y="9.00024" width="9" height="6" rx="2" fill="white" stroke="#64748B" stroke-width="2"></rect>
<circle cx="15" cy="12.0002" r="1" fill="#64748B"></circle>
</svg>