<svg width="150" height="150" viewBox="0 0 150 150" fill="none" xmlns="http://www.w3.org/2000/svg">
  <circle cx="75" cy="75" r="75" fill="none"></circle>
  <path fill-rule="evenodd" clip-rule="evenodd" d="M75 0C97.1656 0 117.085 9.61551 130.816 24.9028C130.276 24.8025 129.722 24.75 129.156 24.75C124.21 24.75 120.2 28.7598 120.2 33.7062C120.2 38.6526 124.21 42.6624 129.156 42.6624C133.862 42.6624 137.721 39.0326 138.084 34.4199C145.624 46.1172 150 60.0476 150 75C150 116.421 116.421 150 75 150C33.5786 150 0 116.421 0 75C0 33.5786 33.5786 0 75 0ZM109.125 47.4028C108.054 48.2152 107.153 49.2643 106.233 50.2604C94.2568 63.237 82.319 76.2499 70.3035 89.1911C66.8795 92.8787 62.7991 95.4014 57.4804 95.1307C53.1732 94.9111 49.7333 92.8709 46.7253 89.9747C46.1546 89.4253 45.5952 88.8633 45.0396 88.2971L43.3771 86.5945C42.2668 85.4622 41.1424 84.3468 39.9449 83.3155C38.7958 82.3262 37.2143 81.5556 35.7256 81.3083C33.1148 80.875 30.6341 82.5069 29.4927 84.8808C28.3359 87.2877 28.6816 89.9868 30.6091 92.0078C33.1777 94.7018 35.7605 97.3948 38.5034 99.9054C44.0638 104.996 50.5312 108.021 59.5812 108.056C66.73 108.003 73.6996 104.353 79.3751 98.3323C90.2099 86.8371 100.829 75.1386 111.535 63.5218C113.581 61.3022 115.674 59.1227 117.639 56.833C119.917 54.1778 119.795 50.6326 117.476 48.2018C115.24 45.8563 111.685 45.4594 109.125 47.4028Z" fill="#140965"></path>
</svg>